<svg width="57" height="27" viewBox="0 0 57 27" fill="none" xmlns="http://www.w3.org/2000/svg">
<path d="M2.73103 26.288C2.15503 26.288 1.68703 26.156 1.32703 25.892C0.991031 25.628 0.787031 25.28 0.715031 24.848C0.643031 24.392 0.727031 23.888 0.967031 23.336L10.471 2.276C10.783 1.58 11.155 1.088 11.587 0.799998C12.043 0.487998 12.559 0.331998 13.135 0.331998C13.687 0.331998 14.179 0.487998 14.611 0.799998C15.067 1.088 15.451 1.58 15.763 2.276L25.303 23.336C25.567 23.888 25.663 24.392 25.591 24.848C25.519 25.304 25.315 25.664 24.979 25.928C24.643 26.168 24.199 26.288 23.647 26.288C22.975 26.288 22.447 26.132 22.063 25.82C21.703 25.484 21.379 24.98 21.091 24.308L18.751 18.872L20.695 20.132H5.50303L7.44703 18.872L5.14303 24.308C4.83103 25.004 4.50703 25.508 4.17103 25.82C3.83503 26.132 3.35503 26.288 2.73103 26.288ZM13.063 5.624L8.02303 17.612L7.08703 16.46H19.111L18.211 17.612L13.135 5.624H13.063ZM31.1401 26.288C30.3961 26.288 29.8201 26.096 29.4121 25.712C29.0281 25.304 28.8361 24.728 28.8361 23.984V10.376C28.8361 9.632 29.0281 9.068 29.4121 8.684C29.7961 8.3 30.3361 8.108 31.0321 8.108C31.7281 8.108 32.2681 8.3 32.6521 8.684C33.0361 9.068 33.2281 9.632 33.2281 10.376V12.644H32.8681C33.2041 11.204 33.8641 10.112 34.8481 9.368C35.8321 8.624 37.1401 8.18 38.7721 8.036C39.2761 7.988 39.6721 8.12 39.9601 8.432C40.2721 8.72 40.4521 9.176 40.5001 9.8C40.5481 10.4 40.4041 10.892 40.0681 11.276C39.7561 11.636 39.2761 11.852 38.6281 11.924L37.8361 11.996C36.3721 12.14 35.2681 12.596 34.5241 13.364C33.7801 14.108 33.4081 15.164 33.4081 16.532V23.984C33.4081 24.728 33.2161 25.304 32.8321 25.712C32.4481 26.096 31.8841 26.288 31.1401 26.288ZM50.7885 26.36C48.9405 26.36 47.3325 25.988 45.9645 25.244C44.5965 24.476 43.5405 23.396 42.7965 22.004C42.0525 20.612 41.6805 18.98 41.6805 17.108C41.6805 15.692 41.8845 14.432 42.2925 13.328C42.7245 12.2 43.3365 11.252 44.1285 10.484C44.9205 9.692 45.8805 9.092 47.0085 8.684C48.1365 8.252 49.3965 8.036 50.7885 8.036C51.5805 8.036 52.4325 8.144 53.3445 8.36C54.2805 8.576 55.1565 8.936 55.9725 9.44C56.3565 9.68 56.6085 9.968 56.7285 10.304C56.8485 10.64 56.8725 10.988 56.8005 11.348C56.7285 11.684 56.5725 11.984 56.3325 12.248C56.1165 12.488 55.8405 12.644 55.5045 12.716C55.1685 12.764 54.7965 12.68 54.3885 12.464C53.8605 12.152 53.3205 11.924 52.7685 11.78C52.2165 11.612 51.6885 11.528 51.1845 11.528C50.3925 11.528 49.6965 11.66 49.0965 11.924C48.4965 12.164 47.9805 12.524 47.5485 13.004C47.1405 13.46 46.8285 14.036 46.6125 14.732C46.3965 15.428 46.2885 16.232 46.2885 17.144C46.2885 18.92 46.7085 20.324 47.5485 21.356C48.4125 22.364 49.6245 22.868 51.1845 22.868C51.6885 22.868 52.2045 22.796 52.7325 22.652C53.2845 22.508 53.8365 22.28 54.3885 21.968C54.7965 21.752 55.1565 21.68 55.4685 21.752C55.8045 21.824 56.0805 21.992 56.2965 22.256C56.5125 22.496 56.6445 22.796 56.6925 23.156C56.7405 23.492 56.6925 23.828 56.5485 24.164C56.4285 24.5 56.1885 24.776 55.8285 24.992C55.0365 25.472 54.1965 25.82 53.3085 26.036C52.4205 26.252 51.5805 26.36 50.7885 26.36Z" fill="white"/>
</svg>
